<?xml version="1.0" standalone="no"?>
<!DOCTYPE svg PUBLIC "-//W3C//DTD SVG 20010904//EN"
 "http://www.w3.org/TR/2001/REC-SVG-20010904/DTD/svg10.dtd">
<svg version="1.0" xmlns="http://www.w3.org/2000/svg"
 width="507.000000pt" height="507.000000pt" viewBox="0 0 507.000000 507.000000"
 preserveAspectRatio="xMidYMid meet">
<metadata>
Created by potrace 1.14, written by Peter Selinger 2001-2017
</metadata>
<g transform="translate(0.000000,507.000000) scale(0.100000,-0.100000)"
fill="#000000" stroke="none">
<path d="M2434 5010 c17 -137 47 -492 43 -504 -3 -8 -33 -15 -84 -19 -260 -20
-571 -143 -803 -316 -107 -80 -253 -223 -323 -316 -66 -87 -176 -263 -194
-310 -6 -17 -23 -60 -37 -97 -33 -83 -72 -231 -86 -323 -6 -38 -13 -85 -16
-102 l-5 -33 -304 0 c-168 0 -305 -1 -305 -3 0 -4 429 -844 775 -1517 95 -184
232 -452 305 -595 73 -143 167 -327 210 -410 42 -82 112 -219 155 -303 l77
-152 693 0 692 0 98 193 c54 105 130 255 170 332 185 358 262 508 383 745 72
140 297 581 501 979 204 398 371 725 371 727 0 2 -119 4 -264 4 l-263 0 -17
109 c-42 273 -171 569 -338 776 -87 108 -202 223 -263 265 -27 18 -52 37 -55
41 -3 4 -48 33 -100 65 -214 130 -425 208 -638 234 -163 21 -154 18 -148 48
12 59 57 504 51 510 -3 3 -69 8 -146 11 l-141 6 6 -45z"/>
</g>
</svg>
